<svg xmlns="http://www.w3.org/2000/svg" xmlns:xlink="http://www.w3.org/1999/xlink" viewBox="0 0 1369 227">
  <defs>
    <style>
      .cls-1 {
        clip-path: url(#clip-Sign_up_3);
      }

      .cls-2 {
        fill: rgba(83,183,237,0.25);
      }

      .cls-2, .cls-3 {
        stroke: #259ddc;
        stroke-width: 0.5px;
      }

      .cls-3 {
        fill: rgba(147,206,237,0.56);
      }
    </style>
    <clipPath id="clip-Sign_up_3">
      <rect width="1369" height="227"/>
    </clipPath>
  </defs>
  <g id="Sign_up_3" data-name="Sign up – 3" class="cls-1">
    <g id="Group_16" data-name="Group 16" transform="translate(-7.438 4.465)">
      <path id="Path_16" data-name="Path 16" class="cls-2" d="M2.012,175.468,90.793,0,195.716,95.2l135.189,17.733,86.476,78.837,51.74-64.837L593.213,92.4l264.635,98.035,212.563-70.968,112.994,16.8,122.074-64.4,76.675,72.8.645,67.954v10.125H2.012Z" transform="translate(0)"/>
      <path id="Path_17" data-name="Path 17" class="cls-3" d="M2,152.065,147.278,105.4l145.278,47.32L437.834,129.1l145.278,47.32,72.639-35.56,119.815,67.3,98.1-102.769,102.642,47.32,162.04,23.707,100.28-79.461,145.985,102.721v29.692H2Z" transform="translate(0.012 -6.464)"/>
    </g>
  </g>
</svg>
